<svg xmlns="http://www.w3.org/2000/svg" xmlns:xlink="http://www.w3.org/1999/xlink" contentStyleType="text/css" data-diagram-type="CLASS" height="434px" preserveAspectRatio="none" style="width:249px;height:434px;background:#FFFFFF;" version="1.1" viewBox="0 0 249 434" width="249px" zoomAndPan="magnify"><defs/><g><!--class ExportLogServiceRequest--><g id="elem_ExportLogServiceRequest"><rect codeLine="1" fill="#F1F1F1" height="64.2969" id="ExportLogServiceRequest" rx="2.5" ry="2.5" style="stroke:#181818;stroke-width:0.5;" width="235.8633" x="7" y="7"/><ellipse cx="32.5952" cy="23" fill="#ADD1B2" rx="11" ry="11" style="stroke:#181818;stroke-width:1;"/><path d="M35.564,28.6406 Q34.9858,28.9375 34.3452,29.0781 Q33.7046,29.2344 33.0015,29.2344 Q30.5015,29.2344 29.1733,27.5938 Q27.8608,25.9375 27.8608,22.8125 Q27.8608,19.6875 29.1733,18.0313 Q30.5015,16.375 33.0015,16.375 Q33.7046,16.375 34.3452,16.5313 Q35.0015,16.6875 35.564,16.9844 L35.564,19.7031 Q34.939,19.125 34.3452,18.8594 Q33.7515,18.5781 33.1265,18.5781 Q31.7827,18.5781 31.0952,19.6563 Q30.4077,20.7188 30.4077,22.8125 Q30.4077,24.9063 31.0952,25.9844 Q31.7827,27.0469 33.1265,27.0469 Q33.7515,27.0469 34.3452,26.7813 Q34.939,26.5 35.564,25.9219 L35.564,28.6406 Z " fill="#000000"/><text fill="#000000" font-family="sans-serif" font-size="14" lengthAdjust="spacing" textLength="180.3184" x="48.9497" y="27.8467">ExportLogServiceRequest</text><line style="stroke:#181818;stroke-width:0.5;" x1="8" x2="241.8633" y1="39" y2="39"/><ellipse cx="18" cy="52.6484" fill="none" rx="3" ry="3" style="stroke:#038048;stroke-width:1;"/><text fill="#000000" font-family="sans-serif" font-size="14" lengthAdjust="spacing" textLength="209.8633" x="27" y="55.9951">ResourceLogs[] resource_logs</text><line style="stroke:#181818;stroke-width:0.5;" x1="8" x2="241.8633" y1="63.2969" y2="63.2969"/></g><!--class ResourceLogs--><g id="elem_ResourceLogs"><rect codeLine="5" fill="#F1F1F1" height="64.2969" id="ResourceLogs" rx="2.5" ry="2.5" style="stroke:#181818;stroke-width:0.5;" width="193.2617" x="28.3" y="131.3"/><ellipse cx="71.9093" cy="147.3" fill="#ADD1B2" rx="11" ry="11" style="stroke:#181818;stroke-width:1;"/><path d="M74.878,152.9406 Q74.2999,153.2375 73.6593,153.3781 Q73.0187,153.5344 72.3155,153.5344 Q69.8155,153.5344 68.4874,151.8938 Q67.1749,150.2375 67.1749,147.1125 Q67.1749,143.9875 68.4874,142.3313 Q69.8155,140.675 72.3155,140.675 Q73.0187,140.675 73.6593,140.8313 Q74.3155,140.9875 74.878,141.2844 L74.878,144.0031 Q74.253,143.425 73.6593,143.1594 Q73.0655,142.8781 72.4405,142.8781 Q71.0968,142.8781 70.4093,143.9563 Q69.7218,145.0188 69.7218,147.1125 Q69.7218,149.2063 70.4093,150.2844 Q71.0968,151.3469 72.4405,151.3469 Q73.0655,151.3469 73.6593,151.0813 Q74.253,150.8 74.878,150.2219 L74.878,152.9406 Z " fill="#000000"/><text fill="#000000" font-family="sans-serif" font-size="14" lengthAdjust="spacing" textLength="97.6855" x="92.2669" y="152.1467">ResourceLogs</text><line style="stroke:#181818;stroke-width:0.5;" x1="29.3" x2="220.5617" y1="163.3" y2="163.3"/><ellipse cx="39.3" cy="176.9484" fill="none" rx="3" ry="3" style="stroke:#038048;stroke-width:1;"/><text fill="#000000" font-family="sans-serif" font-size="14" lengthAdjust="spacing" textLength="167.2617" x="48.3" y="180.2951">ScopeLogs[] scope_logs</text><line style="stroke:#181818;stroke-width:0.5;" x1="29.3" x2="220.5617" y1="187.5969" y2="187.5969"/></g><!--class ScopeLogs--><g id="elem_ScopeLogs"><rect codeLine="9" fill="#F1F1F1" height="64.2969" id="ScopeLogs" rx="2.5" ry="2.5" style="stroke:#181818;stroke-width:0.5;" width="196.7822" x="26.54" y="255.59"/><ellipse cx="83.0835" cy="271.59" fill="#ADD1B2" rx="11" ry="11" style="stroke:#181818;stroke-width:1;"/><path d="M86.0522,277.2306 Q85.4741,277.5275 84.8335,277.6681 Q84.1928,277.8244 83.4897,277.8244 Q80.9897,277.8244 79.6616,276.1838 Q78.3491,274.5275 78.3491,271.4025 Q78.3491,268.2775 79.6616,266.6213 Q80.9897,264.965 83.4897,264.965 Q84.1928,264.965 84.8335,265.1213 Q85.4897,265.2775 86.0522,265.5744 L86.0522,268.2931 Q85.4272,267.715 84.8335,267.4494 Q84.2397,267.1681 83.6147,267.1681 Q82.271,267.1681 81.5835,268.2463 Q80.896,269.3088 80.896,271.4025 Q80.896,273.4963 81.5835,274.5744 Q82.271,275.6369 83.6147,275.6369 Q84.2397,275.6369 84.8335,275.3713 Q85.4272,275.09 86.0522,274.5119 L86.0522,277.2306 Z " fill="#000000"/><text fill="#000000" font-family="sans-serif" font-size="14" lengthAdjust="spacing" textLength="75.1953" x="103.5835" y="276.4367">ScopeLogs</text><line style="stroke:#181818;stroke-width:0.5;" x1="27.54" x2="222.3222" y1="287.59" y2="287.59"/><ellipse cx="37.54" cy="301.2384" fill="none" rx="3" ry="3" style="stroke:#038048;stroke-width:1;"/><text fill="#000000" font-family="sans-serif" font-size="14" lengthAdjust="spacing" textLength="170.7822" x="46.54" y="304.5851">LogRecord[] log_records</text><line style="stroke:#181818;stroke-width:0.5;" x1="27.54" x2="222.3222" y1="311.8869" y2="311.8869"/></g><!--class LogRecord--><g id="elem_LogRecord"><rect codeLine="13" fill="#F1F1F1" height="48" id="LogRecord" rx="2.5" ry="2.5" style="stroke:#181818;stroke-width:0.5;" width="106.498" x="71.68" y="379.89"/><ellipse cx="86.68" cy="395.89" fill="#ADD1B2" rx="11" ry="11" style="stroke:#181818;stroke-width:1;"/><path d="M89.6488,401.5306 Q89.0706,401.8275 88.43,401.9681 Q87.7894,402.1244 87.0863,402.1244 Q84.5863,402.1244 83.2581,400.4838 Q81.9456,398.8275 81.9456,395.7025 Q81.9456,392.5775 83.2581,390.9213 Q84.5863,389.265 87.0863,389.265 Q87.7894,389.265 88.43,389.4213 Q89.0863,389.5775 89.6488,389.8744 L89.6488,392.5931 Q89.0238,392.015 88.43,391.7494 Q87.8363,391.4681 87.2113,391.4681 Q85.8675,391.4681 85.18,392.5463 Q84.4925,393.6088 84.4925,395.7025 Q84.4925,397.7963 85.18,398.8744 Q85.8675,399.9369 87.2113,399.9369 Q87.8363,399.9369 88.43,399.6713 Q89.0238,399.39 89.6488,398.8119 L89.6488,401.5306 Z " fill="#000000"/><text fill="#000000" font-family="sans-serif" font-size="14" lengthAdjust="spacing" textLength="74.498" x="100.68" y="400.7367">LogRecord</text><line style="stroke:#181818;stroke-width:0.5;" x1="72.68" x2="177.178" y1="411.89" y2="411.89"/><line style="stroke:#181818;stroke-width:0.5;" x1="72.68" x2="177.178" y1="419.89" y2="419.89"/></g><!--link ExportLogServiceRequest to ResourceLogs--><g id="link_ExportLogServiceRequest_ResourceLogs"><path codeLine="15" d="M124.93,71.64 C124.93,89.9 124.93,112.82 124.93,131.06 " fill="none" id="ExportLogServiceRequest-ResourceLogs" style="stroke:#181818;stroke-width:1;"/><text fill="#000000" font-family="sans-serif" font-size="13" lengthAdjust="spacing" textLength="8.271" x="116.193" y="91.3429">1</text><text fill="#000000" font-family="sans-serif" font-size="13" lengthAdjust="spacing" textLength="36.5625" x="85.4415" y="120.2869">many</text></g><!--link ResourceLogs to ScopeLogs--><g id="link_ResourceLogs_ScopeLogs"><path codeLine="16" d="M124.93,195.94 C124.93,214.2 124.93,237.11 124.93,255.35 " fill="none" id="ResourceLogs-ScopeLogs" style="stroke:#181818;stroke-width:1;"/><text fill="#000000" font-family="sans-serif" font-size="13" lengthAdjust="spacing" textLength="8.271" x="116.1932" y="215.6429">1</text><text fill="#000000" font-family="sans-serif" font-size="13" lengthAdjust="spacing" textLength="36.5625" x="85.4414" y="244.5769">many</text></g><!--link ScopeLogs to LogRecord--><g id="link_ScopeLogs_LogRecord"><path codeLine="17" d="M124.93,320.24 C124.93,338.98 124.93,362.36 124.93,379.47 " fill="none" id="ScopeLogs-LogRecord" style="stroke:#181818;stroke-width:1;"/><text fill="#000000" font-family="sans-serif" font-size="13" lengthAdjust="spacing" textLength="8.271" x="116.1931" y="339.9449">1</text><text fill="#000000" font-family="sans-serif" font-size="13" lengthAdjust="spacing" textLength="36.5625" x="84.6113" y="368.7726">many</text></g><!--SRC=[TOv12i9034NtEKMOhNJX8TovcYv5Ieb1X6fgqef5lBknE6D7CAjyvhtCfwurmysz5nssSgnPRoVYoDUHRS07eCygiicen0xORe_wYKtd6Pu0D1zPKiciIVgasNl_SV9x4doFJA875nnjT0uB8mC0_rg7TS2gmd1kBrCeQa7HiUHo5VYMAedyzGi0]--></g></svg>