<svg xmlns="http://www.w3.org/2000/svg" xmlns:xlink="http://www.w3.org/1999/xlink" contentStyleType="text/css" height="434px" preserveAspectRatio="none" style="width:336px;height:434px;background:#FFFFFF;" version="1.1" viewBox="0 0 336 434" width="336px" zoomAndPan="magnify"><defs/><g><!--class ExportTraceServiceRequest--><g id="elem_ExportTraceServiceRequest"><rect codeLine="1" fill="#F1F1F1" height="64.2969" id="ExportTraceServiceRequest" rx="2.5" ry="2.5" style="stroke:#181818;stroke-width:0.5;" width="226.2637" x="55.14" y="7"/><ellipse cx="70.14" cy="23" fill="#ADD1B2" rx="11" ry="11" style="stroke:#181818;stroke-width:1.0;"/><path d="M73.1088,28.6406 Q72.5306,28.9375 71.89,29.0781 Q71.2494,29.2344 70.5463,29.2344 Q68.0463,29.2344 66.7181,27.5938 Q65.4056,25.9375 65.4056,22.8125 Q65.4056,19.6875 66.7181,18.0313 Q68.0463,16.375 70.5463,16.375 Q71.2494,16.375 71.89,16.5313 Q72.5463,16.6875 73.1088,16.9844 L73.1088,19.7031 Q72.4838,19.125 71.89,18.8594 Q71.2963,18.5781 70.6713,18.5781 Q69.3275,18.5781 68.64,19.6563 Q67.9525,20.7188 67.9525,22.8125 Q67.9525,24.9063 68.64,25.9844 Q69.3275,27.0469 70.6713,27.0469 Q71.2963,27.0469 71.89,26.7813 Q72.4838,26.5 73.1088,25.9219 L73.1088,28.6406 Z " fill="#000000"/><text fill="#000000" font-family="sans-serif" font-size="14" lengthAdjust="spacing" textLength="194.2637" x="84.14" y="27.8467">ExportTraceServiceRequest</text><line style="stroke:#181818;stroke-width:0.5;" x1="56.14" x2="280.4037" y1="39" y2="39"/><ellipse cx="66.14" cy="52.6484" fill="none" rx="3" ry="3" style="stroke:#038048;stroke-width:1.0;"/><text fill="#000000" font-family="sans-serif" font-size="14" lengthAdjust="spacing" textLength="148.9756" x="75.14" y="55.9951">Resource[] resources</text><line style="stroke:#181818;stroke-width:0.5;" x1="56.14" x2="280.4037" y1="63.2969" y2="63.2969"/></g><!--class Resource--><g id="elem_Resource"><rect codeLine="5" fill="#F1F1F1" height="64.2969" id="Resource" rx="2.5" ry="2.5" style="stroke:#181818;stroke-width:0.5;" width="322.543" x="7" y="131.3"/><ellipse cx="131.4517" cy="147.3" fill="#ADD1B2" rx="11" ry="11" style="stroke:#181818;stroke-width:1.0;"/><path d="M134.4204,152.9406 Q133.8423,153.2375 133.2017,153.3781 Q132.561,153.5344 131.8579,153.5344 Q129.3579,153.5344 128.0298,151.8938 Q126.7173,150.2375 126.7173,147.1125 Q126.7173,143.9875 128.0298,142.3313 Q129.3579,140.675 131.8579,140.675 Q132.561,140.675 133.2017,140.8313 Q133.8579,140.9875 134.4204,141.2844 L134.4204,144.0031 Q133.7954,143.425 133.2017,143.1594 Q132.6079,142.8781 131.9829,142.8781 Q130.6392,142.8781 129.9517,143.9563 Q129.2642,145.0188 129.2642,147.1125 Q129.2642,149.2063 129.9517,150.2844 Q130.6392,151.3469 131.9829,151.3469 Q132.6079,151.3469 133.2017,151.0813 Q133.7954,150.8 134.4204,150.2219 L134.4204,152.9406 Z " fill="#000000"/><text fill="#000000" font-family="sans-serif" font-size="14" lengthAdjust="spacing" textLength="65.1396" x="151.9517" y="152.1467">Resource</text><line style="stroke:#181818;stroke-width:0.5;" x1="8" x2="328.543" y1="163.3" y2="163.3"/><ellipse cx="18" cy="176.9484" fill="none" rx="3" ry="3" style="stroke:#038048;stroke-width:1.0;"/><text fill="#000000" font-family="sans-serif" font-size="14" lengthAdjust="spacing" textLength="296.543" x="27" y="180.2951">InstrumentationScopeSpans[] scopeSpans</text><line style="stroke:#181818;stroke-width:0.5;" x1="8" x2="328.543" y1="187.5969" y2="187.5969"/></g><!--class InstrumentationScopeSpans--><g id="elem_InstrumentationScopeSpans"><rect codeLine="9" fill="#F1F1F1" height="64.2969" id="InstrumentationScopeSpans" rx="2.5" ry="2.5" style="stroke:#181818;stroke-width:0.5;" width="229.5928" x="53.48" y="255.59"/><ellipse cx="68.48" cy="271.59" fill="#ADD1B2" rx="11" ry="11" style="stroke:#181818;stroke-width:1.0;"/><path d="M71.4487,277.2306 Q70.8706,277.5275 70.23,277.6681 Q69.5894,277.8244 68.8862,277.8244 Q66.3862,277.8244 65.0581,276.1838 Q63.7456,274.5275 63.7456,271.4025 Q63.7456,268.2775 65.0581,266.6213 Q66.3862,264.965 68.8862,264.965 Q69.5894,264.965 70.23,265.1213 Q70.8862,265.2775 71.4487,265.5744 L71.4487,268.2931 Q70.8237,267.715 70.23,267.4494 Q69.6362,267.1681 69.0112,267.1681 Q67.6675,267.1681 66.98,268.2463 Q66.2925,269.3088 66.2925,271.4025 Q66.2925,273.4963 66.98,274.5744 Q67.6675,275.6369 69.0112,275.6369 Q69.6362,275.6369 70.23,275.3713 Q70.8237,275.09 71.4487,274.5119 L71.4487,277.2306 Z " fill="#000000"/><text fill="#000000" font-family="sans-serif" font-size="14" lengthAdjust="spacing" textLength="197.5928" x="82.48" y="276.4367">InstrumentationScopeSpans</text><line style="stroke:#181818;stroke-width:0.5;" x1="54.48" x2="282.0728" y1="287.59" y2="287.59"/><ellipse cx="64.48" cy="301.2384" fill="none" rx="3" ry="3" style="stroke:#038048;stroke-width:1.0;"/><text fill="#000000" font-family="sans-serif" font-size="14" lengthAdjust="spacing" textLength="91.5264" x="73.48" y="304.5851">Span[] spans</text><line style="stroke:#181818;stroke-width:0.5;" x1="54.48" x2="282.0728" y1="311.8869" y2="311.8869"/></g><!--class Span--><g id="elem_Span"><rect codeLine="13" fill="#F1F1F1" height="48" id="Span" rx="2.5" ry="2.5" style="stroke:#181818;stroke-width:0.5;" width="67.2256" x="134.66" y="379.89"/><ellipse cx="149.66" cy="395.89" fill="#ADD1B2" rx="11" ry="11" style="stroke:#181818;stroke-width:1.0;"/><path d="M152.6288,401.5306 Q152.0506,401.8275 151.41,401.9681 Q150.7694,402.1244 150.0663,402.1244 Q147.5663,402.1244 146.2381,400.4838 Q144.9256,398.8275 144.9256,395.7025 Q144.9256,392.5775 146.2381,390.9213 Q147.5663,389.265 150.0663,389.265 Q150.7694,389.265 151.41,389.4213 Q152.0663,389.5775 152.6288,389.8744 L152.6288,392.5931 Q152.0038,392.015 151.41,391.7494 Q150.8163,391.4681 150.1913,391.4681 Q148.8475,391.4681 148.16,392.5463 Q147.4725,393.6088 147.4725,395.7025 Q147.4725,397.7963 148.16,398.8744 Q148.8475,399.9369 150.1913,399.9369 Q150.8163,399.9369 151.41,399.6713 Q152.0038,399.39 152.6288,398.8119 L152.6288,401.5306 Z " fill="#000000"/><text fill="#000000" font-family="sans-serif" font-size="14" lengthAdjust="spacing" textLength="35.2256" x="163.66" y="400.7367">Span</text><line style="stroke:#181818;stroke-width:0.5;" x1="135.66" x2="200.8856" y1="411.89" y2="411.89"/><line style="stroke:#181818;stroke-width:0.5;" x1="135.66" x2="200.8856" y1="419.89" y2="419.89"/></g><!--link ExportTraceServiceRequest to Resource--><g id="link_ExportTraceServiceRequest_Resource"><path codeLine="15" d="M168.27,71.64 C168.27,89.9 168.27,112.82 168.27,131.06 " fill="none" id="ExportTraceServiceRequest-Resource" style="stroke:#181818;stroke-width:1.0;"/><text fill="#000000" font-family="sans-serif" font-size="13" lengthAdjust="spacing" textLength="8.271" x="159.533" y="91.3429">1</text><text fill="#000000" font-family="sans-serif" font-size="13" lengthAdjust="spacing" textLength="36.5625" x="128.7813" y="120.2869">many</text></g><!--link Resource to InstrumentationScopeSpans--><g id="link_Resource_InstrumentationScopeSpans"><path codeLine="16" d="M168.27,195.94 C168.27,214.2 168.27,237.11 168.27,255.35 " fill="none" id="Resource-InstrumentationScopeSpans" style="stroke:#181818;stroke-width:1.0;"/><text fill="#000000" font-family="sans-serif" font-size="13" lengthAdjust="spacing" textLength="8.271" x="159.533" y="215.6429">1</text><text fill="#000000" font-family="sans-serif" font-size="13" lengthAdjust="spacing" textLength="36.5625" x="128.7804" y="244.5769">many</text></g><!--link InstrumentationScopeSpans to Span--><g id="link_InstrumentationScopeSpans_Span"><path codeLine="17" d="M168.27,320.24 C168.27,338.98 168.27,362.36 168.27,379.47 " fill="none" id="InstrumentationScopeSpans-Span" style="stroke:#181818;stroke-width:1.0;"/><text fill="#000000" font-family="sans-serif" font-size="13" lengthAdjust="spacing" textLength="8.271" x="159.5321" y="339.9449">1</text><text fill="#000000" font-family="sans-serif" font-size="13" lengthAdjust="spacing" textLength="36.5625" x="127.9504" y="368.7726">many</text></g><!--SRC=[TOwn3W8X38RtFaN3Qcxm8HnS3pVZG9eEbtY0BHYDyTqzZ60OwDJ-xTTyT7MgU7Z48EaaZjYot1VYcM-PDU4BSAlTp1go49ylABzMuGr0Nxnkw_NHQvAyiaykBS5R2f5jT5utNDlmvuVtzM4P2jjZ9GKOkvkzmMb2iph_D4qIccs_7qh0MA__KB8F]--></g></svg>